<?xml version="1.0" encoding="UTF-8"?>
<svg version="1.1" xmlns="http://www.w3.org/2000/svg" width="200" height="200">
<path d="M0 0 C66 0 132 0 200 0 C200 66 200 132 200 200 C134 200 68 200 0 200 C0 134 0 68 0 0 Z " fill="#000000" transform="translate(0,0)"/>
<path d="M0 0 C26.4 0 52.8 0 80 0 C80 6.27 80 12.54 80 19 C73 10.25 73 10.25 73 7 C51.22 7.33 29.44 7.66 7 8 C5.02 11.96 3.04 15.92 1 20 C0.67 20 0.34 20 0 20 C0 13.4 0 6.8 0 0 Z " fill="#169C9D" transform="translate(60,70)"/>
<path d="M0 0 C2.81108598 2.49452224 4.3944855 5.24547641 6.1875 8.53125 C7.10414429 10.20018311 7.10414429 10.20018311 8.03930664 11.90283203 C8.35932648 12.49050354 8.67934631 13.07817505 9.00906372 13.68365479 C10.00629624 15.51154074 11.01227455 17.33432894 12.02124023 19.15576172 C15.11752481 24.74719162 18.19052616 30.34998871 21.22265625 35.9765625 C22.16847728 37.69314581 23.11503643 39.40932273 24.0625 41.125 C24.47822266 41.91712891 24.89394531 42.70925781 25.32226562 43.52539062 C27.74313907 47.98624267 27.74313907 47.98624267 32.30859375 49.9921875 C33.64083984 49.99605469 33.64083984 49.99605469 35 50 C35 52.31 35 54.62 35 57 C30.38 57 25.76 57 21 57 C20.79890625 55.75089844 20.5978125 54.50179687 20.390625 53.21484375 C19.01121323 47.02806094 15.94581384 41.9782248 12.75 36.5625 C11.90888672 35.10360352 11.90888672 35.10360352 11.05078125 33.61523438 C7.7568787 27.91158527 7.7568787 27.91158527 4.25341797 22.3359375 C0.69319927 16.83827788 -0.73357681 13.44890825 -0.375 6.875 C-0.32085937 5.57304688 -0.26671875 4.27109375 -0.2109375 2.9296875 C-0.14132813 1.96289062 -0.07171875 0.99609375 0 0 Z " fill="#F2F2F2" transform="translate(105,82)"/>
<path d="M0 0 C0.33 0 0.66 0 1 0 C3.0843182 14.08493814 -2.50055715 22.52036505 -10 34 C-11.3287849 36.08408437 -12.64519121 38.17420622 -13.94360352 40.27734375 C-14.70279656 41.50485489 -15.47693054 42.72331743 -16.26928711 43.9296875 C-19.04240178 48.3512111 -19.63232203 51.90264633 -20 57 C-24.62 57 -29.24 57 -34 57 C-34 54.69 -34 52.38 -34 50 C-32.61264648 49.89860718 -32.61264648 49.89860718 -31.19726562 49.79516602 C-27.92551193 49.30870207 -27.92551193 49.30870207 -26.25585938 46.97241211 C-25.55686523 45.63835327 -25.55686523 45.63835327 -24.84375 44.27734375 C-24.30258545 43.27437256 -23.7614209 42.27140137 -23.20385742 41.23803711 C-22.64158447 40.14885986 -22.07931152 39.05968262 -21.5 37.9375 C-20.27949342 35.66551056 -19.05677297 33.39470925 -17.83203125 31.125 C-17.36498528 30.24986 -17.36498528 30.24986 -16.88850403 29.35704041 C-13.47219645 22.96243024 -9.844578 16.69749569 -6.1875 10.4375 C-5.58292969 9.39134521 -4.97835937 8.34519043 -4.35546875 7.26733398 C-3.79859375 6.31157471 -3.24171875 5.35581543 -2.66796875 4.37109375 C-1.92969849 3.1015686 -1.92969849 3.1015686 -1.17651367 1.80639648 C-0.78826416 1.21028564 -0.40001465 0.6141748 0 0 Z " fill="#F2F2F2" transform="translate(94,82)"/>
<path d="M0 0 C1.80868813 0.00333092 1.80868813 0.00333092 3.65391541 0.00672913 C4.64899864 0.00651009 4.64899864 0.00651009 5.66418457 0.00628662 C7.86644207 0.00698571 10.06861596 0.01477787 12.27085876 0.02259827 C13.79400588 0.02446246 15.31715359 0.02588636 16.84030151 0.02688599 C20.85657903 0.03071105 24.87282059 0.04054124 28.88908386 0.05158997 C32.98443617 0.06180433 37.07979427 0.06638366 41.17515564 0.07142639 C49.21618963 0.08216352 57.25718746 0.09976022 65.29820251 0.12025452 C65.29820251 4.41025452 65.29820251 8.70025452 65.29820251 13.12025452 C64.30820251 13.12025452 63.31820251 13.12025452 62.29820251 13.12025452 C60.97820251 10.48025452 59.65820251 7.84025452 58.29820251 5.12025452 C28.10320251 4.62525452 28.10320251 4.62525452 -2.70179749 4.12025452 C-3.03179749 3.13025452 -3.36179749 2.14025452 -3.70179749 1.12025452 C-2.70179749 0.12025452 -2.70179749 0.12025452 0 0 Z " fill="#00ABAB" transform="translate(73.70179748535156,70.87974548339844)"/>
<path d="M0 0 C0.99 0.33 1.98 0.66 3 1 C2.505 1.433125 2.01 1.86625 1.5 2.3125 C-0.33218192 3.99740483 -0.33218192 3.99740483 0 7 C3.51220641 6.34746825 3.51220641 6.34746825 6.875 5.1875 C10.51141051 4.86664025 12.98777459 7.08839541 16 9 C16 9.66 16 10.32 16 11 C15.34 11 14.68 11 14 11 C14 11.66 14 12.32 14 13 C13.34 13 12.68 13 12 13 C12 13.66 12 14.32 12 15 C11.34 15 10.68 15 10 15 C9.9071875 15.928125 9.9071875 15.928125 9.8125 16.875 C9 19 9 19 7 20.5 C2.49509712 21.25081715 -1.2975615 19.61618589 -5 17 C-5.609375 14.9140625 -5.609375 14.9140625 -6 13 C-7.2375 12.505 -7.2375 12.505 -8.5 12 C-11 11 -11 11 -11.9375 9.125 C-12.0131712 6.55217933 -11.32168051 5.17688554 -10 3 C-9.0925 3.061875 -8.185 3.12375 -7.25 3.1875 C-3.62353365 2.97828079 -2.74443106 2.17661774 0 0 Z " fill="#0EA09F" transform="translate(95,114)"/>
<path d="M0 0 C4.29 0 8.58 0 13 0 C13 1.65 13 3.3 13 5 C13.66 5 14.32 5 15 5 C15 3.35 15 1.7 15 0 C18.29159316 -0.05790353 21.58305603 -0.09356261 24.875 -0.125 C25.81214844 -0.14175781 26.74929687 -0.15851563 27.71484375 -0.17578125 C28.61074219 -0.18222656 29.50664063 -0.18867188 30.4296875 -0.1953125 C31.25710449 -0.20578613 32.08452148 -0.21625977 32.93701172 -0.22705078 C35 0 35 0 37 2 C37.125 5.125 37.125 5.125 37 8 C34.03 7.67 31.06 7.34 28 7 C27.67 5.68 27.34 4.36 27 3 C26.67 4.32 26.34 5.64 26 7 C25.34 7 24.68 7 24 7 C24 5.35 24 3.7 24 2 C22.35 2.33 20.7 2.66 19 3 C19.99 3.33 20.98 3.66 22 4 C21.67 4.99 21.34 5.98 21 7 C20.01 7 19.02 7 18 7 C18.33 6.34 18.66 5.68 19 5 C18.34 5 17.68 5 17 5 C16.34 5.66 15.68 6.32 15 7 C14.01 7 13.02 7 12 7 C11.67 6.34 11.34 5.68 11 5 C10.21625 5.20625 9.4325 5.4125 8.625 5.625 C7.75875 5.74875 6.8925 5.8725 6 6 C5.34 5.34 4.68 4.68 4 4 C3.34 4.66 2.68 5.32 2 6 C1.34 4.02 0.68 2.04 0 0 Z " fill="#828E8E" transform="translate(60,142)"/>
<path d="M0 0 C2.51171875 0.6484375 2.51171875 0.6484375 4.76171875 3.0234375 C5.51171875 5.6484375 5.51171875 5.6484375 4.51171875 8.6484375 C-0.99957488 8.02215413 -0.99957488 8.02215413 -3.61328125 6.0234375 C-5.36650553 4.40630143 -5.36650553 4.40630143 -7.42578125 4.8984375 C-8.10640625 5.1459375 -8.78703125 5.3934375 -9.48828125 5.6484375 C-11.15347644 5.98904561 -12.81985591 6.32402146 -14.48828125 6.6484375 C-11.51399428 -0.53942267 -7.11400758 -0.85482067 0 0 Z " fill="#159795" transform="translate(110.48828125,113.3515625)"/>
<path d="M0 0 C0.99 0.33 1.98 0.66 3 1 C2.525625 1.37125 2.05125 1.7425 1.5625 2.125 C-0.52205802 4.62646962 -0.64621491 6.81593418 -1 10 C-1.639375 10.12375 -2.27875 10.2475 -2.9375 10.375 C-3.618125 10.58125 -4.29875 10.7875 -5 11 C-5.33 11.66 -5.66 12.32 -6 13 C-8.4375 12.25 -8.4375 12.25 -11 11 C-11.9375 9.125 -11.9375 9.125 -12 7 C-11.0625 4.75 -11.0625 4.75 -10 3 C-9.0925 3.061875 -8.185 3.12375 -7.25 3.1875 C-3.62353365 2.97828079 -2.74443106 2.17661774 0 0 Z " fill="#179A97" transform="translate(95,114)"/>
<path d="M0 0 C3.0289346 0.52018659 5.53326534 1.65885376 8.25 3.0625 C8.95640625 3.42472656 9.6628125 3.78695312 10.390625 4.16015625 C10.92171875 4.43730469 11.4528125 4.71445313 12 5 C12 5.66 12 6.32 12 7 C12.99 7.33 13.98 7.66 15 8 C12.5625 9.75 12.5625 9.75 9 11 C5.57879471 10.30559695 2.7991002 9.08905591 0 7 C-1.125 3.8125 -1.125 3.8125 -1 1 C-0.67 0.67 -0.34 0.34 0 0 Z " fill="#012E32" transform="translate(90,124)"/>
<path d="M0 0 C2.74612427 -0.36076355 2.74612427 -0.36076355 6.28564453 -0.34057617 C6.92967224 -0.34101425 7.57369995 -0.34145233 8.23724365 -0.34190369 C10.36940664 -0.33981094 12.50078662 -0.31645865 14.6328125 -0.29296875 C16.10968598 -0.28737448 17.58656502 -0.28310359 19.06344604 -0.28010559 C22.95326063 -0.26864335 26.8427399 -0.23916473 30.73242188 -0.20599365 C34.70047469 -0.17532222 38.6685816 -0.16160655 42.63671875 -0.14648438 C50.42463214 -0.11429599 58.21226911 -0.06308345 66 0 C65.67 0.66 65.34 1.32 65 2 C33.32 1.505 33.32 1.505 1 1 C0.67 2.32 0.34 3.64 0 5 C-0.63654342 6.3479743 -1.29605388 7.68596724 -2 9 C-2.66 9 -3.32 9 -4 9 C-2.94124926 5.59687262 -1.99097846 2.98646769 0 0 Z " fill="#001415" transform="translate(67,77)"/>
<path d="M0 0 C4.29 0 8.58 0 13 0 C13 1.98 13 3.96 13 6 C7 6 7 6 4 4 C3.34 4.66 2.68 5.32 2 6 C1.34 4.02 0.68 2.04 0 0 Z " fill="#98A0A0" transform="translate(60,142)"/>
<path d="M0 0 C0.8971875 0.309375 0.8971875 0.309375 1.8125 0.625 C2.1425 1.945 2.4725 3.265 2.8125 4.625 C-1.9375 5.75 -1.9375 5.75 -4.1875 4.625 C-4.8475 6.935 -5.5075 9.245 -6.1875 11.625 C-6.5175 10.965 -6.8475 10.305 -7.1875 9.625 C-7.8475 9.295 -8.5075 8.965 -9.1875 8.625 C-4.17151163 -0.71511628 -4.17151163 -0.71511628 0 0 Z " fill="#040F0E" transform="translate(89.1875,112.375)"/>
<path d="M0 0 C2.375 -0.125 2.375 -0.125 5 0 C7 2 7 2 7.125 5.125 C7.08375 6.07375 7.0425 7.0225 7 8 C4.03 7.67 1.06 7.34 -2 7 C-2.33 5.35 -2.66 3.7 -3 2 C-2.34 2 -1.68 2 -1 2 C-0.67 1.34 -0.34 0.68 0 0 Z " fill="#596563" transform="translate(90,142)"/>
<path d="M0 0 C1.65 0 3.3 0 5 0 C5 3.3 5 6.6 5 10 C4.01 10 3.02 10 2 10 C0.25 7.8125 0.25 7.8125 -1 5 C-0.6875 2.1875 -0.6875 2.1875 0 0 Z " fill="#08A3A2" transform="translate(134,74)"/>
<path d="M0 0 C0.99 0 1.98 0 3 0 C3.04254356 1.99954746 3.04080783 4.00041636 3 6 C2 7 2 7 -0.06640625 7.09765625 C-0.89011719 7.08605469 -1.71382813 7.07445312 -2.5625 7.0625 C-3.38878906 7.05347656 -4.21507813 7.04445312 -5.06640625 7.03515625 C-5.70449219 7.02355469 -6.34257813 7.01195312 -7 7 C-6.34 5.02 -5.68 3.04 -5 1 C-4.01 1.66 -3.02 2.32 -2 3 C-1.34 2.01 -0.68 1.02 0 0 Z " fill="#717C7C" transform="translate(118,142)"/>
<path d="M0 0 C3.50625349 0.6493062 5.96542279 2.17925367 9 4 C11.19130534 4.69579454 11.19130534 4.69579454 13 5 C11.51218185 8.78717347 9.38011591 10.77407001 6 13 C5.01 12.67 4.02 12.34 3 12 C3.66 12 4.32 12 5 12 C5 11.34 5 10.68 5 10 C5.66 10 6.32 10 7 10 C7 9.34 7 8.68 7 8 C7.66 8 8.32 8 9 8 C6.27521226 4.63408573 2.93143208 3.55773724 -1 2 C-0.67 1.34 -0.34 0.68 0 0 Z " fill="#002124" transform="translate(102,117)"/>
<path d="M0 0 C2.475 0.99 2.475 0.99 5 2 C5 2.66 5 3.32 5 4 C4.34 4 3.68 4 3 4 C3 4.66 3 5.32 3 6 C2.34 6 1.68 6 1 6 C1 6.66 1 7.32 1 8 C0.34 8 -0.32 8 -1 8 C-1 8.66 -1 9.32 -1 10 C-1.99 10 -2.98 10 -4 10 C-4 8.68 -4 7.36 -4 6 C-3.34 6 -2.68 6 -2 6 C-1.34 4.02 -0.68 2.04 0 0 Z " fill="#17918E" transform="translate(106,121)"/>
<path d="M0 0 C0.66 0 1.32 0 2 0 C2.33 1.65 2.66 3.3 3 5 C3.33 3.35 3.66 1.7 4 0 C4.99 0 5.98 0 7 0 C6.67 0.66 6.34 1.32 6 2 C6.33 2.33 6.66 2.66 7 3 C7 4.32 7 5.64 7 7 C4.69 7 2.38 7 0 7 C0 4.69 0 2.38 0 0 Z " fill="#7C8484" transform="translate(127,142)"/>
<path d="M0 0 C2.31 0 4.62 0 7 0 C6.34 1.98 5.68 3.96 5 6 C2.6739143 6.38063221 0.33944736 6.71269945 -2 7 C-3 6 -3 6 -3.0625 3.4375 C-3.041875 2.633125 -3.02125 1.82875 -3 1 C-2.01 2.32 -1.02 3.64 0 5 C0 3.35 0 1.7 0 0 Z " fill="#88908F" transform="translate(101,142)"/>
<path d="M0 0 C4.75 0.875 4.75 0.875 7 2 C7 2.66 7 3.32 7 4 C6.01 4 5.02 4 4 4 C4 4.66 4 5.32 4 6 C2.35 5.67 0.7 5.34 -1 5 C-0.67 3.35 -0.34 1.7 0 0 Z " fill="#04A9AB" transform="translate(86,119)"/>
<path d="M0 0 C3.93619738 0.56231391 6.79192446 1.61685817 10 4 C10 4.99 10 5.98 10 7 C9.01 7 8.02 7 7 7 C7 6.34 7 5.68 7 5 C5.35 4.67 3.7 4.34 2 4 C2 3.34 2 2.68 2 2 C1.34 2 0.68 2 0 2 C0 1.34 0 0.68 0 0 Z " fill="#1B9892" transform="translate(90,126)"/>
<path d="M0 0 C2.97 0 5.94 0 9 0 C9 1.98 9 3.96 9 6 C8.67 4.68 8.34 3.36 8 2 C7.01 2 6.02 2 5 2 C5 3.65 5 5.3 5 7 C4.34 7 3.68 7 3 7 C2.814375 5.824375 2.814375 5.824375 2.625 4.625 C2.20882007 1.85942178 2.20882007 1.85942178 0 0 Z " fill="#7B8784" transform="translate(81,142)"/>
<path d="M0 0 C0.33 0 0.66 0 1 0 C1.06058594 0.81984375 1.12117188 1.6396875 1.18359375 2.484375 C1.26738281 3.56203125 1.35117187 4.6396875 1.4375 5.75 C1.51871094 6.81734375 1.59992187 7.8846875 1.68359375 8.984375 C1.87764952 11.8956825 1.87764952 11.8956825 2.72265625 14.140625 C2.81417969 14.75421875 2.90570313 15.3678125 3 16 C2.01 17.32 1.02 18.64 0 20 C0 13.4 0 6.8 0 0 Z " fill="#1E9893" transform="translate(60,70)"/>
<path d="M0 0 C0.99 0 1.98 0 3 0 C3.66 0.66 4.32 1.32 5 2 C6.64991582 2.70710678 8.31562256 3.37943989 10 4 C9.67 4.66 9.34 5.32 9 6 C6.69 6 4.38 6 2 6 C2 4.68 2 3.36 2 2 C1.34 2 0.68 2 0 2 C0 1.34 0 0.68 0 0 Z " fill="#253130" transform="translate(59,143)"/>
<path d="M0 0 C2.97 0 5.94 0 9 0 C9 0.99 9 1.98 9 3 C7.824375 3.185625 7.824375 3.185625 6.625 3.375 C3.85942178 3.79117993 3.85942178 3.79117993 2 6 C1.34 4.02 0.68 2.04 0 0 Z " fill="#6B6E6F" transform="translate(60,142)"/>
<path d="M0 0 C1.32 0 2.64 0 4 0 C3.125 3.875 3.125 3.875 2 5 C0.33382885 5.04063832 -1.33388095 5.042721 -3 5 C-2.67 4.01 -2.34 3.02 -2 2 C-1.34 2 -0.68 2 0 2 C0 1.34 0 0.68 0 0 Z " fill="#05AAAE" transform="translate(102,121)"/>
<path d="M0 0 C1.65 0 3.3 0 5 0 C5.33 0.99 5.66 1.98 6 3 C5.34 3 4.68 3 4 3 C4 4.32 4 5.64 4 7 C3.01 7 2.02 7 1 7 C1.020625 6.21625 1.04125 5.4325 1.0625 4.625 C1.18684063 2.01885039 1.18684063 2.01885039 0 0 Z " fill="#6E7070" transform="translate(135,142)"/>
<path d="M0 0 C0.99 0.33 1.98 0.66 3 1 C3 2.65 3 4.3 3 6 C1.35 6.33 -0.3 6.66 -2 7 C-2.33 5.35 -2.66 3.7 -3 2 C-2.34 2 -1.68 2 -1 2 C-0.67 1.34 -0.34 0.68 0 0 Z " fill="#515A5A" transform="translate(90,142)"/>
<path d="M0 0 C0.99 0 1.98 0 3 0 C3 2.31 3 4.62 3 7 C1.68 7 0.36 7 -1 7 C-1 5 -1 5 0 4 C0 2.68 0 1.36 0 0 Z " fill="#7C8484" transform="translate(123,142)"/>
<path d="M0 0 C0 3 0 3 -1 5 C0.65 4.67 2.3 4.34 4 4 C3.01 5.485 3.01 5.485 2 7 C0.35 6.67 -1.3 6.34 -3 6 C-2.42655063 3.13275314 -2.1385485 2.1385485 0 0 Z " fill="#014D4F" transform="translate(97,115)"/>
<path d="M0 0 C0.99 0 1.98 0 3 0 C3.20140476 3.62528568 2.85776765 5.86501708 1 9 C0.34 8.67 -0.32 8.34 -1 8 C-1.04241723 5.66705225 -1.04092937 3.33297433 -1 1 C-0.67 0.67 -0.34 0.34 0 0 Z " fill="#262E2B" transform="translate(97,142)"/>
<path d="M0 0 C1.32 0.33 2.64 0.66 4 1 C3.34 1 2.68 1 2 1 C1.34 3.31 0.68 5.62 0 8 C-0.33 7.34 -0.66 6.68 -1 6 C-1.66 5.67 -2.32 5.34 -3 5 C-2.01 3.35 -1.02 1.7 0 0 Z " fill="#0D2122" transform="translate(83,116)"/>
<path d="M0 0 C1.65 0 3.3 0 5 0 C5.33 1.32 5.66 2.64 6 4 C4.35 3.67 2.7 3.34 1 3 C0.67 2.01 0.34 1.02 0 0 Z " fill="#05AAAB" transform="translate(108,116)"/>
<path d="M0 0 C2.47878682 2.1554668 3.57563804 3.71119485 4 7 C3.67 7.66 3.34 8.32 3 9 C2.34 8.67 1.68 8.34 1 8 C0.26924352 5.6859378 -0.40138258 3.35171131 -1 1 C-0.67 0.67 -0.34 0.34 0 0 Z " fill="#0A1C24" transform="translate(114,113)"/>
<path d="M0 0 C0.99 0.33 1.98 0.66 3 1 C2.25 3.4375 2.25 3.4375 1 6 C-1.125 6.8125 -1.125 6.8125 -3 7 C-2.67 6.34 -2.34 5.68 -2 5 C-1.34 5 -0.68 5 0 5 C0 3.35 0 1.7 0 0 Z " fill="#586161" transform="translate(75,142)"/>
</svg>
